Coordinates
version=1
nRows=36
nColumns=33
inDegrees=yes

Units are S.I. units (second, meters, Newtons, ...)
Angles are in degrees.

endheader
time	ground_thorax_rot_x	ground_thorax_rot_y	ground_thorax_rot_z	ground_thorax_tx	ground_thorax_ty	ground_thorax_tz	clav_prot_r	clav_elev_r	scapula_abduction_r	scapula_elevation_r	scapula_upward_rot_r	scapula_winging_r	shoulder_elv_r	plane_of_elev_r	axial_rot_r	elbow_flexion_r	pro_sup_r	wrist_flex_r	wrist_dev_r	clav_prot_l	clav_elev_l	scapula_abduction_l	scapula_elevation_l	scapula_upward_rot_l	scapula_winging_l	shoulder_elv_l	plane_of_elev_l	axial_rot_l	elbow_flexion_l	pro_sup_l	wrist_flex_l	wrist_dev_l	
2.0900	20.140013	40.474821	8.189803	-0.007885	1.014740	-0.041949	-18.491593	34.434629	-20.377109	25.288715	45.000000	-9.625954	-8.064596	-90.000000	25.601291	72.791450	-4.739875	41.879906	-20.355009	17.998862	-8.355592	-45.000000	2.710681	8.683635	19.900236	34.553480	-53.111436	-49.239448	72.916260	30.440112	3.958589	-25.147477	
2.1000	19.912729	40.255711	8.402323	-0.008130	1.013992	-0.042358	-18.377426	34.390595	-20.043412	25.263365	45.000000	-9.611340	-8.017952	-90.000000	25.555203	72.906022	-3.656447	40.865201	-20.424741	17.960375	-7.561866	-45.000000	2.093092	8.711022	20.242415	33.881556	-52.736756	-49.066384	72.506591	28.970257	3.891754	-24.917781	
2.1100	19.660673	40.015546	8.635701	-0.008403	1.013305	-0.042792	-18.257313	34.335519	-19.677914	25.228753	45.000000	-9.599580	-7.956994	-90.000000	25.494865	73.009462	-2.480731	39.834119	-20.492810	17.928073	-6.762584	-45.000000	1.464241	8.713954	20.589465	33.203756	-52.365456	-48.858448	72.098634	27.388193	3.864562	-24.682198	
2.1200	19.510501	39.877270	8.815529	-0.008642	1.012942	-0.042958	-18.194427	34.277352	-19.437972	25.183920	45.000000	-9.605803	-7.887706	-90.000000	25.425984	73.041714	-1.771896	39.330510	-20.517509	17.923805	-6.390010	-45.000000	1.159624	8.673981	20.755832	32.884003	-52.192132	-48.693383	71.922971	26.449424	3.932792	-24.561284	
2.1300	19.411333	39.790793	8.970260	-0.008872	1.012783	-0.042985	-18.160416	34.215792	-19.258510	25.132326	45.000000	-9.621828	-7.805145	-90.000000	25.343728	73.035918	-1.306827	39.109179	-20.510195	17.936078	-6.250615	-45.000000	1.030849	8.605829	20.823900	32.760588	-52.122252	-48.544326	71.876998	25.840085	4.071754	-24.496628	
2.1400	19.358574	39.754857	9.099091	-0.009108	1.012774	-0.042914	-18.149366	34.157005	-19.136245	25.080269	45.000000	-9.643378	-7.706927	-90.000000	25.245711	73.017206	-1.084603	39.091248	-20.460541	17.957334	-6.285848	-45.000000	1.037332	8.529539	20.816962	32.781848	-52.111718	-48.424882	71.930051	25.529073	4.264634	-24.462831	
2.1500	19.327894	39.741714	9.213776	-0.009346	1.012839	-0.042803	-18.146490	34.101662	-19.038605	25.030347	45.000000	-9.665830	-7.591977	-90.000000	25.130920	73.005026	-0.992395	39.146589	-20.365586	17.982443	-6.396187	-45.000000	1.101978	8.449728	20.777671	32.867207	-52.110273	-48.319016	72.031112	25.350572	4.508256	-24.425461	
2.1600	19.303401	39.733587	9.317232	-0.009604	1.012895	-0.042713	-18.140229	34.054432	-18.946883	24.988222	45.000000	-9.683861	-7.451073	-90.000000	24.990191	73.035581	-0.970801	39.129159	-20.169079	18.007694	-6.489568	-45.000000	1.152384	8.366837	20.745550	32.941837	-52.048446	-48.212920	72.143268	25.161045	4.852738	-24.320986	
2.1700	19.283471	39.730608	9.410631	-0.009870	1.012931	-0.042636	-18.130508	34.015022	-18.860441	24.953703	45.000000	-9.697561	-7.291010	-90.000000	24.830317	73.107597	-1.015208	39.044332	-19.883589	18.033725	-6.570304	-45.000000	1.191487	8.279072	20.718873	33.010374	-51.931156	-48.105385	72.266075	24.959235	5.280983	-24.158904	
2.1800	19.265170	39.733589	9.496965	-0.010148	1.012952	-0.042574	-18.117964	33.982492	-18.779065	24.925763	45.000000	-9.707514	-7.113795	-90.000000	24.653314	73.226560	-1.132426	38.884994	-19.508389	18.063313	-6.645950	-45.000000	1.222523	8.176888	20.695242	33.078825	-51.756118	-47.993200	72.402352	24.735987	5.788439	-23.941176	
2.1900	19.240782	39.740669	9.586324	-0.010424	1.012973	-0.042521	-18.102585	33.951655	-18.694159	24.899773	45.000000	-9.715949	-6.933246	-89.999999	24.472989	73.375856	-1.292949	38.685454	-19.108189	18.097711	-6.732077	-45.000000	1.256983	8.057568	20.668321	33.159110	-51.550030	-47.876032	72.545536	24.492965	6.302401	-23.710033	
2.2000	19.217115	39.751837	9.673443	-0.010705	1.012981	-0.042460	-18.085390	33.926427	-18.614316	24.879067	45.000000	-9.721417	-6.739685	-89.999999	24.279699	73.591088	-1.561743	38.374261	-18.612107	18.148964	-6.840555	-45.000000	1.291690	7.876515	20.636614	33.272612	-51.278122	-47.740714	72.710268	24.185160	6.880744	-23.427949	
2.2100	19.190780	39.773677	9.762155	-0.010987	1.012974	-0.042406	-18.066913	33.904184	-18.536598	24.861258	45.000000	-9.725337	-6.546985	-89.999998	24.087287	73.857578	-1.929083	37.976486	-18.089762	18.211673	-6.965068	-45.000000	1.326952	7.653003	20.601031	33.408273	-50.948880	-47.603201	72.876356	23.845007	7.434060	-23.127646	
2.2200	19.162102	39.805905	9.850864	-0.011271	1.012953	-0.042358	-18.048866	33.881851	-18.459918	24.843280	45.000000	-9.729442	-6.353271	-89.999996	23.893883	74.169888	-2.391714	37.496471	-17.535317	18.286870	-7.107132	-45.000000	1.362811	7.383146	20.561232	33.566044	-50.556913	-47.458591	73.044713	23.466021	7.978735	-22.800029	
2.2300	19.131059	39.851019	9.931303	-0.011561	1.012930	-0.042325	-18.035217	33.849629	-18.377645	24.815835	45.000000	-9.739037	-6.161099	-89.999993	23.702046	74.511218	-2.944592	36.950920	-16.966753	18.375655	-7.266056	-45.000000	1.396801	7.061041	20.517726	33.745100	-50.084847	-47.299363	73.208700	23.041378	8.516806	-22.429816	
2.2400	19.098927	39.907614	10.000669	-0.011854	1.012903	-0.042301	-18.027647	33.806542	-18.292164	24.777797	45.000000	-9.754801	-5.960895	-89.999987	23.502242	74.877389	-3.579170	36.342790	-16.337754	18.481295	-7.446241	-45.000000	1.429129	6.674887	20.469548	33.951059	-49.524838	-47.107789	73.382077	22.545767	9.124398	-21.989275	
2.2500	19.062648	39.985518	10.056090	-0.012156	1.012891	-0.042292	-18.032077	33.743679	-18.202940	24.720460	45.000000	-9.782126	-5.759949	-89.999977	23.301773	75.240020	-4.289163	35.716843	-15.686230	18.605585	-7.647657	-45.000000	1.456388	6.214567	20.417106	34.184861	-48.855035	-46.877771	73.551543	21.972690	9.782526	-21.473161	
2.2600	19.014161	40.086075	10.112452	-0.012450	1.012883	-0.042310	-18.045554	33.664278	-18.108698	24.647122	45.000000	-9.818669	-5.566931	-89.999959	23.109308	75.569606	-5.003409	35.141287	-15.075095	18.734684	-7.859629	-45.000000	1.485190	5.732853	20.360748	34.421273	-48.124819	-46.624225	73.703793	21.377847	10.429512	-20.934979	
2.2700	18.959647	40.211621	10.156354	-0.012756	1.012897	-0.042342	-18.073534	33.561644	-18.011673	24.551171	45.000000	-9.868596	-5.374388	-89.999927	22.917482	75.878899	-5.772604	34.572132	-14.461055	18.881435	-8.092960	-45.000000	1.508720	5.177690	20.299580	34.675979	-47.279019	-46.316092	73.838507	20.716704	11.124273	-20.324442	
2.2800	18.893459	40.357159	10.205883	-0.013050	1.012903	-0.042393	-18.107388	33.447044	-17.910577	24.443841	45.000000	-9.924712	-5.186031	-89.999870	22.730073	76.157193	-6.521169	34.042489	-13.881622	19.028950	-8.336526	-45.000000	1.537611	4.615880	20.233310	34.919707	-46.389706	-45.971739	73.948379	20.059506	11.815385	-19.705495	
2.2900	18.824709	40.527396	10.245088	-0.013359	1.012931	-0.042454	-18.152762	33.313118	-17.807137	24.317922	45.000000	-9.991518	-4.993565	-89.999767	22.538995	76.414865	-7.303190	33.498486	-13.288704	19.193271	-8.605392	-45.000000	1.563936	3.980923	20.159773	35.168257	-45.385964	-45.549159	74.026623	19.358268	12.575534	-19.020532	
2.3000	18.741325	40.717659	10.296869	-0.013658	1.012967	-0.042534	-18.201859	33.166166	-17.694135	24.180080	45.000000	-10.064154	-4.808545	-89.999583	22.356067	76.622396	-8.008558	33.004804	-12.764792	19.349928	-8.884749	-45.000000	1.603852	3.369195	20.077678	35.382905	-44.363973	-45.084929	74.048937	18.715310	13.303062	-18.361333	
2.3100	18.659584	40.933495	10.337807	-0.013985	1.013022	-0.042619	-18.261085	33.003631	-17.582146	24.027302	45.000000	-10.145301	-4.613406	-89.999252	22.164370	76.821448	-8.765959	32.446925	-12.199248	19.532589	-9.195957	-45.000000	1.632451	2.639880	19.987444	35.610771	-43.185434	-44.519770	74.026383	18.021868	14.141337	-17.623940	
2.3200	18.568056	41.169789	10.388783	-0.014316	1.013079	-0.042724	-18.322067	32.831758	-17.462869	23.866296	45.000000	-10.229958	-4.419934	-89.998661	21.976695	76.980391	-9.483606	31.898804	-11.669093	19.719212	-9.525931	-45.000000	1.664660	1.880014	19.887927	35.827875	-41.940936	-43.909217	73.941992	17.365557	14.978723	-16.904430	
2.3300	18.480347	41.433240	10.431434	-0.014680	1.013129	-0.042843	-18.388697	32.651477	-17.346468	23.697459	45.000000	-10.318762	-4.216021	-89.997601	21.782869	77.131004	-10.272342	31.288709	-11.090012	19.941613	-9.889348	-45.000000	1.669720	0.949311	19.781910	36.081635	-40.491140	-43.201416	73.802090	16.646343	15.939825	-16.117197	
2.3400	18.386122	41.715689	10.475538	-0.015057	1.013157	-0.042981	-18.456090	32.461780	-17.221658	23.520631	45.000000	-10.410538	-4.011588	-89.995702	21.596166	77.251803	-11.060337	30.685459	-10.530174	20.181890	-10.275471	-45.000000	1.657189	-0.087665	19.668495	36.364975	-38.899927	-42.448533	73.587654	15.935462	16.919111	-15.342516	
2.3500	18.290356	42.016445	10.512346	-0.015457	1.013165	-0.043142	-18.525522	32.260603	-17.088585	23.333903	45.000000	-10.506357	-3.799423	-89.992303	21.415403	77.355445	-11.891050	30.051409	-9.953706	20.450572	-10.692173	-45.000000	1.618872	-1.278209	19.546999	36.694644	-37.122402	-41.631462	73.298235	15.194244	17.973435	-14.540918	
2.3600	18.187361	42.317217	10.538115	-0.015855	1.013164	-0.043329	-18.594555	32.036083	-16.926088	23.127190	45.000000	-10.609744	-3.579202	-89.986205	21.251156	77.423836	-12.674380	29.432814	-9.421554	20.718673	-11.130444	-45.000000	1.583984	-2.500203	19.412476	37.026639	-35.274997	-40.776703	72.907359	14.507230	19.005587	-13.785449	
2.3700	18.076222	42.633026	10.564612	-0.016266	1.013149	-0.043533	-18.666126	31.798909	-16.755863	22.909695	45.000000	-10.717351	-3.339992	-89.975310	21.111582	77.471944	-13.469507	28.783040	-8.885212	21.007856	-11.606445	-45.000000	1.527113	-3.872580	19.263120	37.421102	-33.255377	-39.863739	72.415394	13.816422	20.130216	-13.035694	
2.3800	17.953891	42.954425	10.593934	-0.016674	1.013144	-0.043759	-18.740346	31.541262	-16.568460	22.674742	45.000000	-10.831791	-3.068228	-89.955717	21.018710	77.481766	-14.225611	28.135159	-8.383111	21.299900	-12.118443	-45.000000	1.471470	-5.314270	19.093747	37.848476	-31.148869	-38.918976	71.803860	13.169306	21.266869	-12.326498	
2.3900	17.824820	43.282774	10.636821	-0.017074	1.013127	-0.044016	-18.813400	31.276407	-16.375167	22.434809	45.000000	-10.946591	-2.732069	-89.920833	21.000459	77.468804	-14.965493	27.455213	-7.888825	21.599729	-12.661865	-45.000000	1.402126	-6.860236	18.907914	38.309218	-28.929277	-37.925448	71.071719	12.536042	22.475844	-11.633997	
2.4000	17.700312	43.603777	10.664430	-0.017455	1.013106	-0.044317	-18.891555	30.985319	-16.165518	22.173022	45.000000	-11.069643	-2.267640	-89.857753	21.111077	77.437380	-15.667350	26.753122	-7.416677	21.896128	-13.233836	-45.000000	1.327153	-8.473875	18.702909	38.790037	-26.626116	-36.871233	70.212673	11.930985	23.708011	-10.961444	
2.4100	17.571739	43.924077	10.682059	-0.017809	1.013087	-0.044655	-18.988061	30.658528	-15.959548	21.880519	45.000000	-11.206473	-1.589561	-89.746410	21.444979	77.393884	-16.356559	26.027454	-6.954468	22.197279	-13.839532	-45.000000	1.241972	-10.185611	18.477911	39.337024	-24.228919	-35.781033	69.248469	11.331169	24.969925	-10.299382	
2.4200	17.440934	44.246401	10.671657	-0.018113	1.013108	-0.045046	-19.129884	30.264727	-15.777130	21.528450	45.000000	-11.373793	-0.496138	-89.542356	22.209573	77.337861	-17.011575	25.296768	-6.521327	22.491626	-14.486198	-45.000000	1.168405	-11.943678	18.224468	39.959692	-21.790603	-34.689765	68.183435	10.757299	26.199989	-9.660666	
2.4300	17.302259	44.571894	10.631427	-0.018332	1.013226	-0.045500	-19.344257	29.774635	-15.643571	21.090139	45.000000	-11.586799	1.247836	-89.189696	23.657755	77.265960	-17.592807	24.574718	-6.139808	22.763676	-15.175863	-45.000000	1.151994	-13.619050	17.935591	40.622497	-19.448998	-33.645095	67.030255	10.259392	27.337500	-9.075407	
2.4400	17.173116	44.925434	10.500673	-0.018414	1.013524	-0.046048	-19.730056	29.094045	-15.660829	20.478353	45.000000	-11.898573	4.421975	-88.522084	26.564791	77.239746	-18.087317	23.841366	-5.808440	23.016605	-15.937274	-45.000000	1.207975	-15.233652	17.594399	41.379932	-17.170099	-32.615017	65.784515	9.853138	28.405678	-8.559156	
